# xmcd CD database file
#
# Track frame offsets:
#	183
#	12723
#	23410
#	32890
#	44670
#	57190
#	71870
#	89098
#	100640
#	113093
#	127368
#
# Disc length: 1834 seconds
#
# Revision: 4
# Processed by: cddbd v1.5.2PL0 Copyright (c) Steve Scherf et al.
# Submitted via: CDex 1.51
#
DISCID=9e07280b
DTITLE=Various Artist - Country Collection Vol 3
DYEAR=1989
DGENRE=Country
TTITLE0=Faron Young - Four In The Morning
TTITLE1=Patsy Cline - Stop Look and Listen
TTITLE2=Willie Nelson - Building Heartaches
TTITLE3=Billie Jo Spears - Ease The Want In Me
TTITLE4=Kenny Rogers - Rueben James
TTITLE5=Anne Murray - Both Sides Now
TTITLE6=Johnny Paycheck - Billy Jack Washburn
TTITLE7=Dolly Parton - Letter To Heaven
TTITLE8=Willie Nelson - Shelter Of My Arms
TTITLE9=B J Thomas - I'd Rather Be Lonely
TTITLE10=Dave Dudley - Sad N Lonely Days
EXTD=YEAR: 1989
EXTT0=
EXTT1=
EXTT2=
EXTT3=
EXTT4=
EXTT5=
EXTT6=
EXTT7=
EXTT8=
EXTT9=
EXTT10=
PLAYORDER=
